<svg xmlns="http://www.w3.org/2000/svg" xmlns:xlink="http://www.w3.org/1999/xlink" width="1080" zoomAndPan="magnify" viewBox="0 0 810 1439.999935" height="1920" preserveAspectRatio="xMidYMid meet" version="1.0"><defs><g/><clipPath id="616f0efa27"><path d="M 1.074219 0 L 810 0 L 810 1440 L 1.074219 1440 Z M 1.074219 0 " clip-rule="nonzero"/></clipPath><clipPath id="92acfb7ab5"><path d="M 188 1395.578125 L 469 1395.578125 L 469 1440 L 188 1440 Z M 188 1395.578125 " clip-rule="nonzero"/></clipPath></defs><g clip-path="url(#616f0efa27)"><path fill="#fefefe" d="M 1507.929688 1623.777344 L 1.289062 1623.777344 L 1.289062 0 L 1507.929688 0 L 1507.929688 1623.777344 " fill-opacity="1" fill-rule="nonzero"/></g><path fill="#d3e3f2" d="M 194.78125 1337.925781 C 201.621094 1329.199219 212.5 1327.332031 223.605469 1327.410156 C 225.742188 1320.222656 230.699219 1313.472656 234.105469 1306.289062 C 234.453125 1305.355469 234.761719 1304.402344 235.058594 1303.449219 C 235.058594 1303.449219 239.164062 1257.238281 252.792969 1224.183594 C 252.695312 1223.605469 252.609375 1223.058594 252.546875 1222.574219 C 250.714844 1208.144531 249.726562 1186.507812 260.691406 1174.21875 C 271.617188 1161.984375 277.617188 1170.824219 292.234375 1181.523438 C 296.4375 1184.597656 299.800781 1186.804688 302.902344 1188.339844 C 317.523438 1187.332031 334.558594 1187.914062 349.648438 1189.4375 C 353.070312 1187.886719 356.902344 1185.453125 362.011719 1181.726562 C 368.671875 1176.859375 382.8125 1164.363281 389.996094 1167.949219 C 402.988281 1174.445312 405.625 1199.738281 405.167969 1225.539062 C 421.183594 1270.308594 415.179688 1345.695312 415.179688 1345.695312 L 412.597656 1366.738281 C 409.269531 1377.964844 401.753906 1383.699219 383.949219 1389.453125 C 358.054688 1397.824219 329.96875 1397.757812 303.328125 1396.90625 C 283.980469 1396.285156 262.21875 1394.433594 244.476562 1386.445312 C 225.648438 1377.964844 224.339844 1365.777344 223.53125 1347.203125 C 223.519531 1346.976562 223.5 1346.753906 223.488281 1346.523438 C 223.132812 1346.519531 222.78125 1346.5 222.429688 1346.496094 C 217.742188 1346.386719 211.042969 1345.945312 208.578125 1350.875 C 205.996094 1356.027344 207.21875 1363.871094 207.613281 1369.371094 C 208.054688 1375.570312 209.128906 1382.253906 213.265625 1387.136719 C 221.582031 1396.972656 238.746094 1399.136719 250.390625 1402.5 C 266.585938 1407.179688 282.789062 1411.867188 298.992188 1416.546875 C 310.558594 1419.898438 305.636719 1437.988281 294.007812 1434.625 C 273.949219 1428.828125 253.886719 1423.042969 233.832031 1417.234375 C 216.742188 1412.28125 199.570312 1406.054688 192.53125 1388.175781 C 189.34375 1380.085938 188.742188 1371.09375 188.5625 1362.476562 C 188.386719 1353.890625 189.304688 1344.894531 194.78125 1337.925781 " fill-opacity="1" fill-rule="nonzero"/><path fill="#151613" d="M 360.15625 1248.21875 C 360.15625 1250.121094 361.695312 1251.660156 363.597656 1251.660156 C 365.496094 1251.660156 367.035156 1250.121094 367.035156 1248.21875 C 367.035156 1246.324219 365.496094 1244.777344 363.597656 1244.777344 C 361.695312 1244.777344 360.15625 1246.324219 360.15625 1248.21875 " fill-opacity="1" fill-rule="nonzero"/><path fill="#151613" d="M 290.199219 1248.21875 C 290.199219 1250.121094 291.742188 1251.660156 293.644531 1251.660156 C 295.542969 1251.660156 297.082031 1250.121094 297.082031 1248.21875 C 297.082031 1246.324219 295.542969 1244.777344 293.644531 1244.777344 C 291.742188 1244.777344 290.199219 1246.324219 290.199219 1248.21875 " fill-opacity="1" fill-rule="nonzero"/><path fill="#151613" d="M 316.101562 1272.300781 C 318.398438 1272.597656 320.890625 1272.972656 323.082031 1272.003906 C 325.144531 1271.09375 325.773438 1269.398438 325.839844 1267.472656 C 322.285156 1267.171875 319.597656 1265.769531 319.597656 1264.09375 C 319.597656 1263.84375 319.566406 1263.527344 319.773438 1263.367188 C 322.460938 1261.339844 330.402344 1261.570312 333.257812 1263.367188 C 333.476562 1263.503906 333.429688 1263.84375 333.429688 1264.09375 C 333.429688 1265.769531 330.742188 1267.171875 327.1875 1267.472656 C 327.253906 1269.398438 327.882812 1271.09375 329.945312 1272.003906 C 332.136719 1272.972656 334.628906 1272.597656 336.925781 1272.300781 C 338.308594 1272.121094 338.296875 1274.292969 336.925781 1274.472656 C 333.765625 1274.878906 330.335938 1275.164062 327.617188 1273.167969 C 327.183594 1272.851562 326.820312 1272.488281 326.511719 1272.113281 C 326.207031 1272.488281 325.847656 1272.851562 325.410156 1273.167969 C 322.695312 1275.164062 319.261719 1274.878906 316.101562 1274.472656 C 314.730469 1274.292969 314.71875 1272.121094 316.101562 1272.300781 " fill-opacity="1" fill-rule="nonzero"/><path fill="#151613" d="M 376.84375 1272.042969 C 382.621094 1270.210938 388.507812 1269.167969 394.5625 1268.894531 C 395.960938 1268.832031 395.960938 1271 394.5625 1271.066406 C 388.699219 1271.332031 383.011719 1272.355469 377.421875 1274.140625 C 376.085938 1274.566406 375.511719 1272.46875 376.84375 1272.042969 " fill-opacity="1" fill-rule="nonzero"/><path fill="#151613" d="M 379.894531 1277.871094 C 383.90625 1278.433594 387.917969 1279 391.933594 1279.558594 C 393.3125 1279.746094 392.722656 1281.839844 391.351562 1281.652344 C 387.339844 1281.089844 383.328125 1280.527344 379.316406 1279.964844 C 377.9375 1279.769531 378.527344 1277.675781 379.894531 1277.871094 " fill-opacity="1" fill-rule="nonzero"/><path fill="#151613" d="M 378.53125 1282.480469 C 382.015625 1285.609375 385.5 1288.726562 388.980469 1291.847656 C 390.023438 1292.777344 388.484375 1294.316406 387.445312 1293.386719 L 376.996094 1284.019531 C 375.953125 1283.082031 377.492188 1281.550781 378.53125 1282.480469 " fill-opacity="1" fill-rule="nonzero"/><path fill="#151613" d="M 279.609375 1272.042969 C 273.832031 1270.210938 267.945312 1269.167969 261.886719 1268.894531 C 260.488281 1268.832031 260.492188 1271 261.886719 1271.066406 C 267.753906 1271.332031 273.441406 1272.355469 279.03125 1274.140625 C 280.367188 1274.566406 280.941406 1272.46875 279.609375 1272.042969 " fill-opacity="1" fill-rule="nonzero"/><path fill="#151613" d="M 276.558594 1277.871094 C 272.542969 1278.433594 268.53125 1279 264.519531 1279.558594 C 263.140625 1279.746094 263.726562 1281.839844 265.097656 1281.652344 C 269.109375 1281.089844 273.121094 1280.527344 277.132812 1279.964844 C 278.515625 1279.769531 277.925781 1277.675781 276.558594 1277.871094 " fill-opacity="1" fill-rule="nonzero"/><path fill="#151613" d="M 277.921875 1282.480469 C 274.4375 1285.609375 270.953125 1288.726562 267.46875 1291.847656 C 266.425781 1292.777344 267.964844 1294.316406 269.007812 1293.386719 L 279.457031 1284.019531 C 280.5 1283.082031 278.960938 1281.550781 277.921875 1282.480469 " fill-opacity="1" fill-rule="nonzero"/><path fill="#d3e3f2" d="M 761.421875 719.054688 C 768.261719 710.339844 779.136719 708.460938 790.246094 708.539062 C 792.382812 701.355469 797.339844 694.605469 800.746094 687.429688 C 801.09375 686.488281 801.402344 685.542969 801.699219 684.582031 C 801.699219 684.582031 805.804688 638.371094 819.433594 605.316406 C 819.332031 604.738281 819.25 604.191406 819.1875 603.707031 C 817.359375 589.277344 816.363281 567.640625 827.332031 555.351562 C 838.253906 543.113281 844.257812 551.953125 858.871094 562.65625 C 863.082031 565.726562 866.441406 567.9375 869.542969 569.472656 C 884.160156 568.464844 901.199219 569.046875 916.289062 570.570312 C 919.710938 569.019531 923.542969 566.585938 928.652344 562.859375 C 935.3125 557.992188 949.453125 545.496094 956.632812 549.089844 C 969.628906 555.582031 972.265625 580.867188 971.808594 606.671875 C 987.824219 651.449219 981.816406 726.824219 981.816406 726.824219 L 979.234375 747.875 C 975.910156 759.097656 968.394531 764.832031 950.589844 770.59375 C 924.699219 778.957031 896.609375 778.898438 869.964844 778.039062 C 850.621094 777.425781 828.855469 775.566406 811.117188 767.578125 C 792.285156 759.097656 790.980469 746.910156 790.171875 728.34375 C 790.160156 728.109375 790.136719 727.886719 790.121094 727.65625 C 789.769531 727.648438 789.421875 727.632812 789.070312 727.628906 C 784.378906 727.519531 777.679688 727.078125 775.214844 732.015625 C 772.636719 737.160156 773.863281 745.003906 774.253906 750.503906 C 774.691406 756.703125 775.769531 763.382812 779.90625 768.269531 C 788.222656 778.105469 805.386719 780.269531 817.027344 783.636719 C 833.230469 788.324219 849.433594 793 865.625 797.679688 C 877.195312 801.03125 872.28125 819.125 860.648438 815.761719 C 840.582031 809.960938 820.527344 804.175781 800.472656 798.367188 C 783.382812 793.425781 766.207031 787.1875 759.171875 769.308594 C 755.980469 761.21875 755.382812 752.234375 755.203125 743.609375 C 755.027344 735.03125 755.941406 726.023438 761.421875 719.054688 " fill-opacity="1" fill-rule="nonzero"/><path fill="#f1bdc5" d="M 228.238281 683.683594 C 221.695312 654.078125 196.726562 633.8125 169.738281 623.117188 C 164.988281 621.234375 159.457031 625.195312 158.203125 629.664062 C 156.734375 634.917969 160.066406 639.339844 164.753906 641.195312 C 190.75 651.5 214.976562 675.398438 210.941406 705.574219 C 207.285156 732.929688 177.113281 742.945312 164.097656 764.914062 C 157.039062 776.828125 155.527344 790.269531 161.085938 803.042969 C 165.039062 812.136719 175.40625 822.417969 173.496094 832.988281 C 171.378906 844.707031 157.015625 852.25 147.160156 856.304688 C 144.597656 857.355469 141.976562 858.265625 139.332031 859.089844 C 139.460938 856.570312 139.554688 853.964844 139.644531 851.246094 C 139.894531 843.742188 141.292969 836.15625 140.242188 828.71875 C 138.710938 817.863281 132.90625 807.925781 129.070312 797.269531 C 128.726562 796.042969 128.414062 794.789062 128.117188 793.527344 C 128.117188 793.527344 124.015625 732.566406 110.386719 688.957031 C 110.484375 688.199219 110.570312 687.480469 110.632812 686.835938 C 112.460938 667.800781 113.449219 639.261719 102.484375 623.046875 C 91.5625 606.902344 85.558594 618.566406 70.941406 632.679688 C 66.742188 636.734375 63.375 639.644531 60.273438 641.671875 C 45.65625 640.34375 28.617188 641.117188 13.53125 643.121094 C 10.109375 641.078125 6.277344 637.867188 1.164062 632.945312 C 0.910156 632.691406 0.636719 632.429688 0.355469 632.144531 L 0.355469 913.628906 C 20.007812 917.890625 40.316406 917.640625 59.855469 916.808594 C 79.195312 915.996094 100.960938 913.539062 118.699219 903.007812 C 129.1875 896.769531 134.234375 889.023438 136.792969 879.148438 C 161.570312 873.203125 192.882812 858.042969 192.46875 829.949219 C 192.265625 815.960938 182.257812 806.527344 177.59375 794.203125 C 172.414062 780.507812 183.699219 768.152344 193.199219 759.722656 C 204.417969 749.765625 216.988281 740.8125 223.734375 726.949219 C 230.28125 713.507812 231.449219 698.199219 228.238281 683.683594 " fill-opacity="1" fill-rule="nonzero"/><path fill="#151613" d="M 65.601562 711.882812 C 65.601562 715.164062 68.261719 717.824219 71.539062 717.824219 C 74.816406 717.824219 77.476562 715.164062 77.476562 711.882812 C 77.476562 708.605469 74.816406 705.949219 71.539062 705.949219 C 68.261719 705.949219 65.601562 708.605469 65.601562 711.882812 " fill-opacity="1" fill-rule="nonzero"/><path fill="#151613" d="M 11.796875 733.046875 C 14.191406 733.351562 16.796875 733.746094 19.082031 732.738281 C 21.230469 731.785156 21.890625 730.015625 21.957031 728.007812 C 18.25 727.695312 15.445312 726.238281 15.445312 724.480469 C 15.445312 724.222656 15.410156 723.890625 15.625 723.730469 C 18.4375 721.609375 26.71875 721.855469 29.691406 723.730469 C 29.921875 723.875 29.875 724.222656 29.875 724.480469 C 29.875 726.238281 27.070312 727.695312 23.363281 728.007812 C 23.429688 730.015625 24.089844 731.785156 26.238281 732.738281 C 28.523438 733.746094 31.128906 733.351562 33.523438 733.046875 C 34.964844 732.859375 34.953125 735.125 33.523438 735.3125 C 30.226562 735.738281 26.644531 736.035156 23.8125 733.957031 C 23.355469 733.617188 22.980469 733.242188 22.660156 732.84375 C 22.335938 733.242188 21.964844 733.617188 21.503906 733.957031 C 18.671875 736.035156 15.09375 735.738281 11.796875 735.3125 C 10.367188 735.125 10.351562 732.859375 11.796875 733.046875 " fill-opacity="1" fill-rule="nonzero"/><path fill="#151613" d="M 78.246094 731.289062 C 84.136719 729.417969 90.128906 728.355469 96.300781 728.082031 C 97.722656 728.019531 97.71875 730.226562 96.300781 730.289062 C 90.324219 730.566406 84.53125 731.613281 78.835938 733.421875 C 77.472656 733.855469 76.894531 731.71875 78.246094 731.289062 " fill-opacity="1" fill-rule="nonzero"/><path fill="#151613" d="M 81.355469 737.21875 C 85.441406 737.796875 89.53125 738.367188 93.617188 738.945312 C 95.023438 739.136719 94.425781 741.265625 93.03125 741.070312 C 88.941406 740.503906 84.855469 739.925781 80.765625 739.355469 C 79.363281 739.15625 79.960938 737.023438 81.355469 737.21875 " fill-opacity="1" fill-rule="nonzero"/><path fill="#151613" d="M 79.96875 741.921875 C 83.515625 745.097656 87.0625 748.277344 90.613281 751.460938 C 91.675781 752.414062 90.105469 753.972656 89.046875 753.027344 L 78.402344 743.488281 C 77.339844 742.539062 78.910156 740.96875 79.96875 741.921875 " fill-opacity="1" fill-rule="nonzero"/><path fill="#d0ddbb" d="M 572.011719 266.332031 C 578.554688 236.734375 603.515625 216.46875 630.507812 205.769531 C 635.257812 203.894531 640.789062 207.855469 642.039062 212.324219 C 643.511719 217.570312 640.179688 221.996094 635.492188 223.851562 C 609.496094 234.144531 585.269531 258.050781 589.300781 288.230469 C 592.960938 315.578125 623.132812 325.601562 636.144531 347.5625 C 643.207031 359.476562 644.71875 372.921875 639.160156 385.699219 C 635.207031 394.785156 624.835938 405.0625 626.75 415.640625 C 628.867188 427.359375 643.230469 434.902344 653.085938 438.960938 C 655.648438 440.015625 658.269531 440.921875 660.910156 441.738281 C 660.785156 439.222656 660.6875 436.617188 660.601562 433.898438 C 660.351562 426.394531 658.953125 418.808594 660.003906 411.363281 C 661.535156 400.515625 667.339844 390.582031 671.175781 379.925781 C 671.519531 378.695312 671.832031 377.445312 672.125 376.175781 C 672.125 376.175781 676.230469 315.21875 689.855469 271.613281 C 689.761719 270.855469 689.675781 270.132812 689.613281 269.480469 C 687.785156 250.449219 686.792969 221.914062 697.757812 205.699219 C 708.683594 189.554688 714.6875 201.21875 729.308594 215.332031 C 733.507812 219.390625 736.867188 222.300781 739.972656 224.324219 C 754.585938 222.996094 771.625 223.773438 786.71875 225.777344 C 790.136719 223.734375 793.96875 220.515625 799.082031 215.597656 C 805.742188 209.183594 819.878906 192.691406 827.058594 197.4375 C 840.058594 205.996094 842.691406 239.363281 842.238281 273.398438 C 858.25 332.464844 852.246094 431.910156 852.246094 431.910156 L 849.664062 459.671875 C 846.335938 474.46875 838.824219 482.039062 821.019531 489.632812 C 795.125 500.671875 767.035156 500.585938 740.394531 499.46875 C 721.050781 498.648438 699.289062 496.195312 681.546875 485.65625 C 671.054688 479.425781 666.007812 471.683594 663.449219 461.800781 C 638.675781 455.859375 607.363281 440.691406 607.777344 412.605469 C 607.980469 398.605469 617.988281 389.183594 622.652344 376.855469 C 627.832031 363.15625 616.546875 350.8125 607.042969 342.371094 C 595.824219 332.421875 583.253906 323.464844 576.511719 309.605469 C 569.964844 296.160156 568.800781 280.851562 572.011719 266.332031 " fill-opacity="1" fill-rule="nonzero"/><path fill="#151613" d="M 734.648438 294.539062 C 734.648438 297.816406 731.984375 300.472656 728.707031 300.472656 C 725.421875 300.472656 722.765625 297.816406 722.765625 294.539062 C 722.765625 291.257812 725.421875 288.601562 728.707031 288.601562 C 731.984375 288.601562 734.648438 291.257812 734.648438 294.539062 " fill-opacity="1" fill-rule="nonzero"/><path fill="#151613" d="M 821.125 293.597656 C 821.125 296.875 818.472656 299.53125 815.191406 299.53125 C 811.914062 299.53125 809.257812 296.875 809.257812 293.597656 C 809.257812 290.316406 811.914062 287.660156 815.191406 287.660156 C 818.472656 287.660156 821.125 290.316406 821.125 293.597656 " fill-opacity="1" fill-rule="nonzero"/><path fill="#151613" d="M 788.445312 315.699219 C 786.050781 316.003906 783.445312 316.402344 781.164062 315.390625 C 779.015625 314.445312 778.359375 312.671875 778.285156 310.664062 C 781.996094 310.347656 784.796875 308.890625 784.796875 307.144531 C 784.796875 306.882812 784.832031 306.542969 784.617188 306.382812 C 781.808594 304.269531 773.523438 304.511719 770.550781 306.382812 C 770.320312 306.527344 770.371094 306.882812 770.371094 307.144531 C 770.371094 308.890625 773.175781 310.347656 776.878906 310.664062 C 776.816406 312.671875 776.160156 314.445312 774.007812 315.390625 C 771.71875 316.402344 769.121094 316.003906 766.726562 315.699219 C 765.28125 315.511719 765.296875 317.777344 766.726562 317.964844 C 770.015625 318.394531 773.597656 318.695312 776.433594 316.605469 C 776.886719 316.273438 777.261719 315.902344 777.589844 315.503906 C 777.902344 315.902344 778.277344 316.273438 778.734375 316.605469 C 781.570312 318.695312 785.148438 318.394531 788.445312 317.964844 C 789.875 317.777344 789.890625 315.511719 788.445312 315.699219 " fill-opacity="1" fill-rule="nonzero"/><path fill="#151613" d="M 722 313.9375 C 716.113281 312.070312 710.117188 311.011719 703.945312 310.730469 C 702.523438 310.667969 702.527344 312.882812 703.945312 312.945312 C 709.921875 313.210938 715.71875 314.261719 721.410156 316.074219 C 722.769531 316.507812 723.355469 314.375 722 313.9375 " fill-opacity="1" fill-rule="nonzero"/><path fill="#151613" d="M 718.890625 319.871094 C 714.804688 320.445312 710.714844 321.019531 706.628906 321.589844 C 705.222656 321.789062 705.820312 323.925781 707.21875 323.726562 C 711.304688 323.148438 715.394531 322.582031 719.480469 322.007812 C 720.882812 321.8125 720.285156 319.679688 718.890625 319.871094 " fill-opacity="1" fill-rule="nonzero"/><path fill="#151613" d="M 720.277344 324.578125 C 716.730469 327.757812 713.179688 330.9375 709.628906 334.117188 C 708.566406 335.070312 710.136719 336.628906 711.195312 335.679688 L 721.839844 326.140625 C 722.902344 325.191406 721.335938 323.628906 720.277344 324.578125 " fill-opacity="1" fill-rule="nonzero"/><path fill="#fde6b7" d="M 217.015625 373.90625 C 213.507812 369.242188 211.269531 364.792969 208.796875 360.566406 C 207.320312 337.011719 204.425781 312.746094 199.070312 292.992188 C 199.527344 258.957031 196.890625 225.59375 183.898438 217.027344 C 176.710938 212.289062 162.570312 228.777344 155.914062 235.195312 C 150.804688 240.113281 146.96875 243.328125 143.550781 245.371094 C 128.460938 243.367188 111.425781 242.589844 96.804688 243.925781 C 93.703125 241.894531 90.335938 238.984375 86.136719 234.933594 C 71.519531 220.8125 65.519531 209.148438 54.59375 225.300781 C 43.628906 241.511719 44.621094 270.046875 46.449219 289.082031 C 46.511719 289.71875 46.597656 290.449219 46.691406 291.207031 C 45.90625 293.722656 45.15625 296.308594 44.429688 298.929688 C 40.117188 299.484375 35.878906 300.058594 31.757812 300.625 C 21.296875 302.054688 10.820312 302.210938 0.355469 302.167969 L 0.355469 429.941406 C 26.796875 429.683594 51.921875 432.121094 78.007812 440.269531 C 97.148438 446.242188 113.304688 450.390625 128.085938 463.0625 C 140.949219 474.09375 159.542969 487.414062 173.488281 474.257812 C 189.75 458.898438 168.917969 428.066406 180.167969 423.070312 C 201.496094 413.59375 205.1875 423.0625 216 426.402344 C 229.503906 430.566406 250.53125 439.109375 250.445312 419.796875 C 250.367188 402.664062 226.316406 386.273438 217.015625 373.90625 " fill-opacity="1" fill-rule="nonzero"/><path fill="#151613" d="M 104.714844 297.503906 C 104.714844 300.328125 102.425781 302.617188 99.601562 302.617188 C 96.773438 302.617188 94.484375 300.328125 94.484375 297.503906 C 94.484375 294.675781 96.773438 292.390625 99.601562 292.390625 C 102.425781 292.390625 104.714844 294.675781 104.714844 297.503906 " fill-opacity="1" fill-rule="nonzero"/><path fill="#151613" d="M 179.230469 296.707031 C 179.230469 299.53125 176.9375 301.820312 174.113281 301.820312 C 171.289062 301.820312 169 299.53125 169 296.707031 C 169 293.878906 171.289062 291.589844 174.113281 291.589844 C 176.9375 291.589844 179.230469 293.878906 179.230469 296.707031 " fill-opacity="1" fill-rule="nonzero"/><path fill="#151613" d="M 151.070312 315.742188 C 149.007812 316.003906 146.765625 316.347656 144.796875 315.472656 C 142.945312 314.65625 142.378906 313.136719 142.320312 311.398438 C 145.511719 311.132812 147.929688 309.878906 147.929688 308.367188 C 147.929688 308.136719 147.960938 307.855469 147.773438 307.710938 C 145.351562 305.890625 138.21875 306.101562 135.652344 307.710938 C 135.457031 307.839844 135.496094 308.136719 135.496094 308.367188 C 135.496094 309.878906 137.914062 311.132812 141.105469 311.398438 C 141.046875 313.136719 140.480469 314.65625 138.632812 315.472656 C 136.660156 316.347656 134.417969 316.003906 132.351562 315.742188 C 131.109375 315.578125 131.121094 317.535156 132.351562 317.695312 C 135.191406 318.058594 138.277344 318.320312 140.71875 316.523438 C 141.113281 316.234375 141.4375 315.910156 141.710938 315.570312 C 141.988281 315.910156 142.3125 316.234375 142.703125 316.523438 C 145.148438 318.320312 148.234375 318.058594 151.070312 317.695312 C 152.304688 317.535156 152.316406 315.578125 151.070312 315.742188 " fill-opacity="1" fill-rule="nonzero"/><path fill="#151613" d="M 93.820312 314.226562 C 88.746094 312.617188 83.582031 311.707031 78.265625 311.464844 C 77.039062 311.40625 77.042969 313.316406 78.265625 313.371094 C 83.414062 313.605469 88.40625 314.507812 93.3125 316.070312 C 94.484375 316.441406 94.984375 314.597656 93.820312 314.226562 " fill-opacity="1" fill-rule="nonzero"/><path fill="#151613" d="M 91.140625 319.339844 C 87.621094 319.835938 84.097656 320.332031 80.578125 320.820312 C 79.363281 320.988281 79.882812 322.828125 81.082031 322.660156 C 84.601562 322.164062 88.125 321.667969 91.648438 321.179688 C 92.855469 321.011719 92.34375 319.171875 91.140625 319.339844 " fill-opacity="1" fill-rule="nonzero"/><path fill="#151613" d="M 92.339844 323.386719 C 89.28125 326.128906 86.222656 328.871094 83.164062 331.605469 C 82.25 332.429688 83.601562 333.769531 84.511719 332.957031 L 93.6875 324.734375 C 94.601562 323.910156 93.25 322.570312 92.339844 323.386719 " fill-opacity="1" fill-rule="nonzero"/><path fill="#151613" d="M 190.527344 310.101562 C 195.023438 308.675781 199.601562 307.867188 204.3125 307.65625 C 205.398438 307.609375 205.394531 309.296875 204.3125 309.34375 C 199.753906 309.554688 195.328125 310.355469 190.980469 311.734375 C 189.941406 312.066406 189.492188 310.4375 190.527344 310.101562 " fill-opacity="1" fill-rule="nonzero"/><path fill="#151613" d="M 192.902344 314.644531 C 196.023438 315.074219 199.144531 315.519531 202.265625 315.953125 C 203.339844 316.105469 202.882812 317.726562 201.816406 317.582031 C 198.695312 317.140625 195.574219 316.707031 192.453125 316.265625 C 191.382812 316.121094 191.835938 314.488281 192.902344 314.644531 " fill-opacity="1" fill-rule="nonzero"/><path fill="#151613" d="M 191.84375 318.222656 C 194.554688 320.652344 197.261719 323.078125 199.972656 325.507812 C 200.78125 326.238281 199.585938 327.429688 198.777344 326.699219 L 190.648438 319.425781 C 189.835938 318.695312 191.035156 317.503906 191.84375 318.222656 " fill-opacity="1" fill-rule="nonzero"/><path fill="#e5bbe1" d="M 484.335938 1416.289062 C 503.789062 1415.617188 524.683594 1415.039062 542.433594 1406.085938 C 546.597656 1403.984375 550.457031 1401.46875 553.992188 1398.59375 C 528.199219 1384.921875 521.476562 1356.917969 525.988281 1324.949219 C 533.398438 1312.289062 540.800781 1299.632812 548.210938 1286.96875 C 554.566406 1254.144531 563.21875 1218.632812 565.753906 1210.523438 C 565.660156 1209.757812 565.574219 1209.042969 565.511719 1208.398438 C 563.683594 1189.359375 562.691406 1160.828125 573.65625 1144.613281 C 584.582031 1128.460938 590.582031 1140.132812 605.199219 1154.246094 C 609.398438 1158.300781 612.765625 1161.210938 615.871094 1163.238281 C 630.488281 1161.910156 647.523438 1162.683594 662.613281 1164.6875 C 666.03125 1162.644531 669.867188 1159.433594 674.976562 1154.507812 C 681.636719 1148.09375 695.773438 1131.609375 702.960938 1136.34375 C 715.953125 1144.910156 718.589844 1178.269531 718.132812 1212.304688 C 721.136719 1223.375 709.632812 1294.722656 698.574219 1320.195312 C 699.875 1322.777344 701.128906 1325.378906 702.296875 1328.023438 C 711.628906 1349.074219 711.195312 1378.171875 690.878906 1392.835938 C 661.839844 1413.785156 608.917969 1413.257812 574.027344 1405.515625 C 568.207031 1411.792969 561.414062 1417.171875 553.792969 1421.289062 C 532.546875 1432.753906 507.972656 1434.222656 484.335938 1435.035156 C 472.265625 1435.449219 472.285156 1416.699219 484.335938 1416.289062 " fill-opacity="1" fill-rule="nonzero"/><path fill="#151613" d="M 610.335938 1217.308594 C 610.335938 1220.589844 607.675781 1223.246094 604.398438 1223.246094 C 601.117188 1223.246094 598.460938 1220.589844 598.460938 1217.308594 C 598.460938 1214.03125 601.117188 1211.375 604.398438 1211.375 C 607.675781 1211.375 610.335938 1214.03125 610.335938 1217.308594 " fill-opacity="1" fill-rule="nonzero"/><path fill="#151613" d="M 696.816406 1216.375 C 696.816406 1219.652344 694.160156 1222.308594 690.878906 1222.308594 C 687.601562 1222.308594 684.945312 1219.652344 684.945312 1216.375 C 684.945312 1213.09375 687.601562 1210.4375 690.878906 1210.4375 C 694.160156 1210.4375 696.816406 1213.09375 696.816406 1216.375 " fill-opacity="1" fill-rule="nonzero"/><path fill="#151613" d="M 664.136719 1238.472656 C 661.742188 1238.773438 659.140625 1239.171875 656.855469 1238.164062 C 654.707031 1237.210938 654.050781 1235.441406 653.980469 1233.4375 C 657.6875 1233.117188 660.492188 1231.660156 660.492188 1229.90625 C 660.492188 1229.648438 660.527344 1229.316406 660.308594 1229.15625 C 657.503906 1227.035156 649.21875 1227.28125 646.242188 1229.15625 C 646.015625 1229.300781 646.0625 1229.648438 646.0625 1229.90625 C 646.0625 1231.660156 648.867188 1233.117188 652.570312 1233.4375 C 652.507812 1235.441406 651.847656 1237.210938 649.699219 1238.164062 C 647.414062 1239.171875 644.8125 1238.773438 642.414062 1238.472656 C 640.972656 1238.285156 640.984375 1240.550781 642.414062 1240.738281 C 645.710938 1241.164062 649.289062 1241.460938 652.125 1239.378906 C 652.582031 1239.042969 652.957031 1238.667969 653.277344 1238.269531 C 653.597656 1238.667969 653.972656 1239.042969 654.429688 1239.378906 C 657.261719 1241.460938 660.84375 1241.164062 664.136719 1240.738281 C 665.566406 1240.550781 665.582031 1238.285156 664.136719 1238.472656 " fill-opacity="1" fill-rule="nonzero"/><path fill="#151613" d="M 597.6875 1236.710938 C 591.804688 1234.84375 585.808594 1233.78125 579.636719 1233.507812 C 578.214844 1233.441406 578.21875 1235.652344 579.636719 1235.714844 C 585.613281 1235.988281 591.410156 1237.035156 597.101562 1238.847656 C 598.460938 1239.277344 599.046875 1237.144531 597.6875 1236.710938 " fill-opacity="1" fill-rule="nonzero"/><path fill="#151613" d="M 594.582031 1242.640625 C 590.496094 1243.21875 586.40625 1243.789062 582.320312 1244.367188 C 580.914062 1244.5625 581.511719 1246.699219 582.90625 1246.496094 C 586.992188 1245.925781 591.082031 1245.355469 595.167969 1244.777344 C 596.574219 1244.582031 595.976562 1242.445312 594.582031 1242.640625 " fill-opacity="1" fill-rule="nonzero"/><path fill="#151613" d="M 595.96875 1247.347656 C 592.421875 1250.523438 588.871094 1253.707031 585.324219 1256.886719 C 584.257812 1257.839844 585.828125 1259.398438 586.890625 1258.453125 L 597.535156 1248.914062 C 598.597656 1247.960938 597.027344 1246.394531 595.96875 1247.347656 " fill-opacity="1" fill-rule="nonzero"/><path fill="#151613" d="M 709.933594 1231.933594 C 715.148438 1230.277344 720.464844 1229.34375 725.929688 1229.097656 C 727.191406 1229.042969 727.191406 1230.996094 725.929688 1231.054688 C 720.640625 1231.289062 715.503906 1232.222656 710.457031 1233.832031 C 709.25 1234.214844 708.734375 1232.316406 709.933594 1231.933594 " fill-opacity="1" fill-rule="nonzero"/><path fill="#151613" d="M 712.6875 1237.195312 C 716.3125 1237.699219 719.933594 1238.214844 723.554688 1238.71875 C 724.804688 1238.890625 724.265625 1240.78125 723.035156 1240.605469 C 719.414062 1240.101562 715.789062 1239.589844 712.167969 1239.085938 C 710.925781 1238.914062 711.453125 1237.019531 712.6875 1237.195312 " fill-opacity="1" fill-rule="nonzero"/><path fill="#151613" d="M 711.460938 1241.359375 C 714.601562 1244.179688 717.75 1246.992188 720.894531 1249.816406 C 721.835938 1250.660156 720.445312 1252.035156 719.503906 1251.203125 L 710.074219 1242.742188 C 709.132812 1241.90625 710.519531 1240.523438 711.460938 1241.359375 " fill-opacity="1" fill-rule="nonzero"/><path fill="#8ea1d9" d="M 146.511719 1149.367188 L 125.628906 1156.441406 C 117.542969 1153.777344 108.820312 1152.320312 99.71875 1152.320312 C 95.015625 1152.320312 90.417969 1152.730469 85.949219 1153.472656 L 73.449219 1141.519531 C 69.003906 1125.339844 61.53125 1109.722656 49.5625 1097.824219 C 36.011719 1084.359375 18.632812 1077.394531 0.355469 1075.242188 L 0.355469 1311.929688 C 5.257812 1315.378906 10.3125 1318.621094 15.5 1321.613281 C 17.78125 1324.824219 21.316406 1327.082031 25.472656 1327.640625 C 25.953125 1327.707031 26.453125 1327.734375 26.957031 1327.738281 C 42.519531 1335.414062 59.085938 1341.003906 76.214844 1344.070312 C 84.035156 1345.476562 91.984375 1342.050781 94.242188 1333.839844 C 96.199219 1326.707031 91.804688 1317.210938 84.003906 1315.820312 C 77.007812 1314.566406 70.089844 1312.917969 63.292969 1310.820312 C 60.128906 1309.847656 56.988281 1308.777344 53.886719 1307.621094 C 52.320312 1307.039062 50.769531 1306.417969 49.21875 1305.796875 C 49.199219 1305.789062 49.148438 1305.769531 49.085938 1305.738281 C 49.246094 1305.15625 49.421875 1304.570312 49.613281 1303.992188 C 49.484375 1304.519531 50.75 1301.769531 50.832031 1301.628906 C 50.933594 1301.453125 51.738281 1300.203125 52.105469 1299.597656 C 52.550781 1299.078125 53.523438 1297.875 53.675781 1297.714844 C 54.496094 1296.84375 55.363281 1296.019531 56.257812 1295.234375 C 56.128906 1295.421875 58.375 1293.71875 58.484375 1293.652344 C 59.582031 1292.972656 60.714844 1292.351562 61.878906 1291.792969 C 62.0625 1291.703125 62.207031 1291.640625 62.324219 1291.582031 C 63.007812 1291.332031 63.691406 1291.085938 64.390625 1290.875 C 65.679688 1290.46875 66.980469 1290.117188 68.300781 1289.820312 C 68.300781 1289.820312 71.613281 1289.351562 71.300781 1289.335938 C 72.769531 1289.214844 74.246094 1289.15625 75.71875 1289.164062 C 78.757812 1289.179688 80.03125 1289.25 81.574219 1289.53125 C 84.886719 1290.125 88.128906 1291.019531 91.367188 1291.914062 C 93.582031 1292.519531 95.839844 1292.546875 97.992188 1292.117188 C 111.570312 1303.472656 127.519531 1312.015625 144.515625 1316.78125 C 152.164062 1318.921875 160.445312 1314.175781 162.542969 1306.546875 C 164.644531 1298.894531 159.925781 1290.660156 152.308594 1288.523438 C 149.757812 1287.808594 147.238281 1287.035156 144.746094 1286.140625 C 143.617188 1285.738281 142.492188 1285.304688 141.375 1284.871094 C 141.167969 1284.789062 140.992188 1284.726562 140.832031 1284.660156 C 140.75 1284.617188 140.566406 1284.527344 140.234375 1284.375 C 139.085938 1283.847656 137.945312 1283.292969 136.808594 1282.726562 C 141.390625 1281.992188 145.675781 1280.171875 149.320312 1276.203125 C 150.980469 1274.402344 152.234375 1272.375 153.175781 1270.199219 L 166.355469 1188.199219 C 168.789062 1178.761719 170.414062 1169.050781 171.523438 1159.558594 C 172.964844 1147.292969 154.058594 1140.066406 146.511719 1149.367188 " fill-opacity="1" fill-rule="nonzero"/><path fill="#151613" d="M 126.40625 1225.222656 C 126.40625 1227.191406 128 1228.78125 129.964844 1228.78125 C 131.925781 1228.78125 133.519531 1227.191406 133.519531 1225.222656 C 133.519531 1223.261719 131.925781 1221.671875 129.964844 1221.671875 C 128 1221.671875 126.40625 1223.261719 126.40625 1225.222656 " fill-opacity="1" fill-rule="nonzero"/><path fill="#151613" d="M 54.132812 1225.222656 C 54.132812 1227.191406 55.722656 1228.78125 57.683594 1228.78125 C 59.648438 1228.78125 61.238281 1227.191406 61.238281 1225.222656 C 61.238281 1223.261719 59.648438 1221.671875 57.683594 1221.671875 C 55.722656 1221.671875 54.132812 1223.261719 54.132812 1225.222656 " fill-opacity="1" fill-rule="nonzero"/><path fill="#151613" d="M 80.890625 1250.101562 C 83.265625 1250.40625 85.839844 1250.796875 88.105469 1249.800781 C 90.234375 1248.855469 90.882812 1247.109375 90.953125 1245.117188 C 87.28125 1244.804688 84.503906 1243.363281 84.503906 1241.625 C 84.503906 1241.375 84.46875 1241.039062 84.683594 1240.875 C 87.464844 1238.78125 95.667969 1239.019531 98.613281 1240.875 C 98.84375 1241.019531 98.792969 1241.375 98.792969 1241.625 C 98.792969 1243.363281 96.019531 1244.804688 92.347656 1245.117188 C 92.410156 1247.109375 93.066406 1248.855469 95.195312 1249.800781 C 97.457031 1250.796875 100.035156 1250.40625 102.410156 1250.101562 C 103.835938 1249.921875 103.824219 1252.167969 102.410156 1252.347656 C 99.144531 1252.765625 95.597656 1253.070312 92.789062 1251.003906 C 92.339844 1250.675781 91.964844 1250.300781 91.652344 1249.910156 C 91.332031 1250.300781 90.960938 1250.675781 90.507812 1251.003906 C 87.703125 1253.070312 84.15625 1252.765625 80.890625 1252.347656 C 79.476562 1252.167969 79.460938 1249.921875 80.890625 1250.101562 " fill-opacity="1" fill-rule="nonzero"/><path fill="#151613" d="M 143.652344 1249.84375 C 149.621094 1247.9375 155.703125 1246.871094 161.960938 1246.589844 C 163.40625 1246.527344 163.402344 1248.769531 161.960938 1248.835938 C 155.902344 1249.109375 150.023438 1250.167969 144.246094 1252.007812 C 142.867188 1252.441406 142.277344 1250.277344 143.652344 1249.84375 " fill-opacity="1" fill-rule="nonzero"/><path fill="#151613" d="M 146.804688 1255.863281 C 150.949219 1256.441406 155.09375 1257.023438 159.242188 1257.601562 C 160.667969 1257.804688 160.0625 1259.96875 158.648438 1259.765625 C 154.5 1259.1875 150.351562 1258.605469 146.207031 1258.019531 C 144.78125 1257.828125 145.390625 1255.660156 146.804688 1255.863281 " fill-opacity="1" fill-rule="nonzero"/><path fill="#151613" d="M 145.398438 1260.625 C 148.996094 1263.851562 152.59375 1267.078125 156.195312 1270.300781 C 157.273438 1271.269531 155.679688 1272.855469 154.605469 1271.890625 L 143.808594 1262.210938 C 142.730469 1261.246094 144.324219 1259.664062 145.398438 1260.625 " fill-opacity="1" fill-rule="nonzero"/><path fill="#151613" d="M 43.183594 1249.84375 C 37.214844 1247.9375 31.132812 1246.871094 24.875 1246.589844 C 23.429688 1246.527344 23.433594 1248.769531 24.875 1248.835938 C 30.933594 1249.109375 36.8125 1250.167969 42.589844 1252.007812 C 43.96875 1252.441406 44.558594 1250.277344 43.183594 1249.84375 " fill-opacity="1" fill-rule="nonzero"/><path fill="#151613" d="M 40.03125 1255.863281 C 35.886719 1256.441406 31.738281 1257.023438 27.59375 1257.601562 C 26.167969 1257.804688 26.773438 1259.96875 28.191406 1259.765625 C 32.335938 1259.1875 36.484375 1258.605469 40.628906 1258.019531 C 42.054688 1257.828125 41.449219 1255.660156 40.03125 1255.863281 " fill-opacity="1" fill-rule="nonzero"/><path fill="#151613" d="M 41.441406 1260.625 C 37.839844 1263.851562 34.242188 1267.078125 30.640625 1270.300781 C 29.5625 1271.269531 31.15625 1272.855469 32.230469 1271.890625 L 43.027344 1262.210938 C 44.105469 1261.246094 42.515625 1259.664062 41.441406 1260.625 " fill-opacity="1" fill-rule="nonzero"/><path fill="#d3e3f2" d="M 537.632812 385.023438 C 530.789062 376.296875 519.914062 374.425781 508.8125 374.511719 C 506.675781 367.324219 501.714844 360.574219 498.308594 353.386719 C 497.960938 352.457031 497.652344 351.503906 497.355469 350.550781 C 497.355469 350.550781 493.25 304.339844 479.621094 271.28125 C 479.71875 270.707031 479.804688 270.160156 479.863281 269.675781 C 481.695312 255.242188 482.6875 233.605469 471.71875 221.316406 C 460.796875 209.078125 454.792969 217.921875 440.175781 228.625 C 435.976562 231.695312 432.609375 233.902344 429.507812 235.4375 C 414.890625 234.429688 397.855469 235.019531 382.765625 236.539062 C 379.34375 234.984375 375.511719 232.554688 370.402344 228.824219 C 363.742188 223.953125 349.601562 211.453125 342.417969 215.046875 C 329.425781 221.550781 326.785156 246.832031 327.242188 272.636719 C 311.226562 317.410156 317.234375 392.796875 317.234375 392.796875 L 319.816406 413.835938 C 323.140625 425.058594 330.65625 430.796875 348.464844 436.550781 C 374.355469 444.925781 402.445312 444.855469 429.089844 444.003906 C 448.429688 443.386719 470.195312 441.53125 487.9375 433.539062 C 506.765625 425.058594 508.074219 412.871094 508.882812 394.300781 C 508.894531 394.074219 508.914062 393.847656 508.925781 393.621094 C 509.277344 393.613281 509.632812 393.597656 509.984375 393.589844 C 514.671875 393.484375 521.371094 393.050781 523.835938 397.980469 C 526.417969 403.125 525.191406 410.972656 524.800781 416.464844 C 524.359375 422.660156 523.289062 429.34375 519.148438 434.234375 C 510.828125 444.066406 493.667969 446.234375 482.023438 449.601562 C 465.824219 454.28125 449.625 458.96875 433.425781 463.644531 C 421.855469 466.996094 426.773438 485.089844 438.410156 481.726562 C 458.46875 475.929688 478.527344 470.136719 498.582031 464.332031 C 515.671875 459.382812 532.84375 453.152344 539.882812 435.273438 C 543.070312 427.1875 543.671875 418.195312 543.851562 409.574219 C 544.027344 400.992188 543.113281 391.992188 537.632812 385.023438 " fill-opacity="1" fill-rule="nonzero"/><path fill="#151613" d="M 372.257812 295.324219 C 372.257812 297.226562 370.71875 298.761719 368.816406 298.761719 C 366.917969 298.761719 365.378906 297.226562 365.378906 295.324219 C 365.378906 293.425781 366.917969 291.882812 368.816406 291.882812 C 370.71875 291.882812 372.257812 293.425781 372.257812 295.324219 " fill-opacity="1" fill-rule="nonzero"/><path fill="#151613" d="M 442.210938 295.324219 C 442.210938 297.226562 440.671875 298.761719 438.769531 298.761719 C 436.871094 298.761719 435.328125 297.226562 435.328125 295.324219 C 435.328125 293.425781 436.871094 291.882812 438.769531 291.882812 C 440.671875 291.882812 442.210938 293.425781 442.210938 295.324219 " fill-opacity="1" fill-rule="nonzero"/><path fill="#151613" d="M 416.3125 319.390625 C 414.015625 319.691406 411.519531 320.0625 409.332031 319.09375 C 407.273438 318.191406 406.640625 316.484375 406.578125 314.566406 C 410.128906 314.257812 412.816406 312.863281 412.816406 311.183594 C 412.816406 310.933594 412.851562 310.617188 412.644531 310.457031 C 409.949219 308.429688 402.011719 308.664062 399.160156 310.457031 C 398.9375 310.601562 398.984375 310.933594 398.984375 311.183594 C 398.984375 312.863281 401.675781 314.257812 405.226562 314.566406 C 405.164062 316.484375 404.53125 318.191406 402.472656 319.09375 C 400.28125 320.0625 397.785156 319.691406 395.488281 319.390625 C 394.105469 319.214844 394.117188 321.382812 395.488281 321.5625 C 398.644531 321.972656 402.078125 322.261719 404.796875 320.261719 C 405.234375 319.941406 405.59375 319.585938 405.902344 319.203125 C 406.210938 319.585938 406.566406 319.941406 407.007812 320.261719 C 409.722656 322.261719 413.15625 321.972656 416.3125 321.5625 C 417.683594 321.382812 417.699219 319.214844 416.3125 319.390625 " fill-opacity="1" fill-rule="nonzero"/><path fill="#151613" d="M 355.574219 319.132812 C 349.789062 317.296875 343.90625 316.261719 337.851562 315.988281 C 336.453125 315.921875 336.457031 318.101562 337.851562 318.164062 C 343.714844 318.429688 349.40625 319.457031 354.996094 321.230469 C 356.332031 321.652344 356.902344 319.558594 355.574219 319.132812 " fill-opacity="1" fill-rule="nonzero"/><path fill="#151613" d="M 352.519531 324.960938 C 348.507812 325.527344 344.492188 326.085938 340.480469 326.652344 C 339.105469 326.839844 339.691406 328.9375 341.058594 328.746094 C 345.070312 328.179688 349.085938 327.625 353.097656 327.058594 C 354.476562 326.867188 353.890625 324.769531 352.519531 324.960938 " fill-opacity="1" fill-rule="nonzero"/><path fill="#151613" d="M 353.882812 329.582031 C 350.398438 332.703125 346.914062 335.828125 343.429688 338.949219 C 342.386719 339.878906 343.925781 341.410156 344.96875 340.484375 L 355.417969 331.121094 C 356.460938 330.183594 354.917969 328.652344 353.882812 329.582031 " fill-opacity="1" fill-rule="nonzero"/><path fill="#151613" d="M 452.804688 319.132812 C 458.585938 317.296875 464.46875 316.261719 470.527344 315.988281 C 471.925781 315.921875 471.921875 318.101562 470.527344 318.164062 C 464.664062 318.429688 458.972656 319.457031 453.382812 321.230469 C 452.046875 321.652344 451.476562 319.558594 452.804688 319.132812 " fill-opacity="1" fill-rule="nonzero"/><path fill="#151613" d="M 455.855469 324.960938 C 459.871094 325.527344 463.882812 326.085938 467.894531 326.652344 C 469.273438 326.839844 468.6875 328.9375 467.316406 328.746094 C 463.304688 328.179688 459.292969 327.625 455.277344 327.058594 C 453.902344 326.867188 454.488281 324.769531 455.855469 324.960938 " fill-opacity="1" fill-rule="nonzero"/><path fill="#151613" d="M 454.492188 329.582031 C 457.976562 332.703125 461.460938 335.828125 464.941406 338.949219 C 465.984375 339.878906 464.445312 341.410156 463.40625 340.484375 L 452.957031 331.121094 C 451.914062 330.183594 453.453125 328.652344 454.492188 329.582031 " fill-opacity="1" fill-rule="nonzero"/><path fill="#f1bdc5" d="M 926.0625 908.308594 C 926.519531 874.273438 923.882812 840.910156 910.890625 832.347656 C 903.703125 827.605469 889.566406 844.09375 882.902344 850.511719 C 877.792969 855.429688 873.960938 858.640625 870.542969 860.683594 C 855.453125 858.683594 838.417969 857.90625 823.796875 859.238281 C 820.695312 857.214844 817.332031 854.304688 813.132812 850.242188 C 798.515625 836.128906 792.511719 824.46875 781.585938 840.617188 C 770.621094 856.824219 771.613281 885.363281 773.445312 904.398438 C 773.503906 905.042969 773.589844 905.761719 773.683594 906.523438 C 760.058594 950.128906 755.953125 1011.089844 755.953125 1011.089844 C 755.65625 1012.351562 755.34375 1013.605469 755 1014.832031 C 751.167969 1025.488281 745.363281 1035.433594 743.828125 1046.28125 C 742.78125 1053.71875 744.179688 1061.304688 744.425781 1068.808594 C 744.511719 1071.527344 744.613281 1074.132812 744.738281 1076.652344 C 742.09375 1075.832031 739.472656 1074.917969 736.914062 1073.867188 C 727.054688 1069.8125 712.691406 1062.277344 710.574219 1050.550781 C 708.667969 1039.980469 719.035156 1029.699219 722.988281 1020.605469 C 728.542969 1007.832031 727.03125 994.390625 719.972656 982.476562 C 706.957031 960.519531 676.789062 950.496094 673.132812 923.136719 C 669.09375 892.960938 693.320312 869.0625 719.320312 858.761719 C 724.003906 856.902344 727.335938 852.484375 725.863281 847.234375 C 724.613281 842.757812 719.082031 838.804688 714.335938 840.679688 C 687.34375 851.375 662.378906 871.644531 655.835938 901.246094 C 652.625 915.765625 653.792969 931.070312 660.335938 944.519531 C 667.082031 958.375 679.652344 967.332031 690.871094 977.285156 C 700.371094 985.71875 711.65625 998.070312 706.480469 1011.765625 C 701.816406 1024.097656 691.808594 1033.523438 691.601562 1047.511719 C 691.191406 1075.605469 722.5 1090.765625 747.277344 1096.710938 C 749.839844 1106.589844 754.882812 1114.34375 765.371094 1120.570312 C 783.117188 1131.101562 804.875 1133.558594 824.214844 1134.375 C 850.859375 1135.496094 878.949219 1135.585938 904.84375 1124.542969 C 922.648438 1116.953125 930.167969 1109.386719 933.492188 1094.578125 L 936.078125 1066.816406 C 936.078125 1066.816406 942.082031 967.371094 926.0625 908.308594 " fill-opacity="1" fill-rule="nonzero"/><path fill="#151613" d="M 818.46875 929.453125 C 818.46875 932.726562 815.816406 935.386719 812.53125 935.386719 C 809.253906 935.386719 806.589844 932.726562 806.589844 929.453125 C 806.589844 926.167969 809.253906 923.511719 812.53125 923.511719 C 815.816406 923.511719 818.46875 926.167969 818.46875 929.453125 " fill-opacity="1" fill-rule="nonzero"/><path fill="#151613" d="M 805.828125 948.851562 C 799.9375 946.980469 793.941406 945.917969 787.769531 945.644531 C 786.351562 945.582031 786.355469 947.796875 787.769531 947.851562 C 793.746094 948.128906 799.539062 949.175781 805.234375 950.984375 C 806.597656 951.417969 807.175781 949.28125 805.828125 948.851562 " fill-opacity="1" fill-rule="nonzero"/><path fill="#151613" d="M 802.71875 954.78125 C 798.632812 955.359375 794.539062 955.929688 790.453125 956.507812 C 789.046875 956.699219 789.648438 958.835938 791.039062 958.632812 C 795.132812 958.066406 799.214844 957.492188 803.308594 956.917969 C 804.707031 956.722656 804.109375 954.585938 802.71875 954.78125 " fill-opacity="1" fill-rule="nonzero"/><path fill="#151613" d="M 804.101562 959.484375 C 800.558594 962.667969 797.007812 965.84375 793.457031 969.023438 C 792.398438 969.976562 793.960938 971.535156 795.023438 970.59375 L 805.667969 961.050781 C 806.730469 960.101562 805.164062 958.542969 804.101562 959.484375 " fill-opacity="1" fill-rule="nonzero"/><path fill="#d0ddbb" d="M 546.171875 881.632812 C 539.625 852.03125 514.660156 831.761719 487.671875 821.078125 C 482.921875 819.191406 477.390625 823.152344 476.136719 827.621094 C 474.667969 832.871094 478 837.296875 482.6875 839.148438 C 508.679688 849.449219 532.910156 873.347656 528.875 903.523438 C 525.21875 930.882812 495.046875 940.90625 482.03125 962.863281 C 474.972656 974.777344 473.460938 988.226562 479.015625 1001 C 482.972656 1010.085938 493.339844 1020.367188 491.429688 1030.945312 C 489.3125 1042.664062 474.949219 1050.199219 465.089844 1054.253906 C 462.527344 1055.316406 459.910156 1056.21875 457.265625 1057.039062 C 457.390625 1054.527344 457.488281 1051.914062 457.578125 1049.195312 C 457.828125 1041.699219 459.226562 1034.113281 458.175781 1026.667969 C 456.644531 1015.820312 450.839844 1005.886719 447.003906 995.226562 C 446.660156 993.992188 446.34375 992.734375 446.050781 991.480469 C 446.050781 991.480469 441.949219 930.515625 428.320312 886.914062 C 428.414062 886.148438 428.5 885.429688 428.5625 884.785156 C 430.390625 865.75 431.382812 837.210938 420.417969 821.003906 C 409.492188 804.855469 403.492188 816.515625 388.875 830.636719 C 384.675781 834.691406 381.308594 837.601562 378.203125 839.625 C 363.585938 838.292969 346.550781 839.070312 331.464844 841.078125 C 328.042969 839.035156 324.207031 835.820312 319.097656 830.898438 C 312.441406 824.480469 298.300781 807.992188 291.113281 812.734375 C 278.121094 821.300781 275.484375 854.660156 275.941406 888.695312 C 259.925781 947.761719 265.929688 1047.203125 265.929688 1047.203125 L 268.511719 1074.964844 C 271.839844 1089.773438 279.355469 1097.339844 297.160156 1104.929688 C 323.054688 1115.972656 351.140625 1115.886719 377.785156 1114.769531 C 397.128906 1113.953125 418.894531 1111.5 436.628906 1100.957031 C 447.121094 1094.726562 452.167969 1086.980469 454.726562 1077.097656 C 479.5 1071.164062 510.816406 1055.992188 510.402344 1027.898438 C 510.195312 1013.90625 500.1875 1004.484375 495.523438 992.152344 C 490.347656 978.457031 501.632812 966.109375 511.132812 957.671875 C 522.351562 947.722656 534.921875 938.761719 541.667969 924.90625 C 548.214844 911.457031 549.378906 896.152344 546.171875 881.632812 " fill-opacity="1" fill-rule="nonzero"/><path fill="#151613" d="M 383.53125 909.839844 C 383.53125 913.113281 386.191406 915.777344 389.472656 915.777344 C 392.75 915.777344 395.410156 913.113281 395.410156 909.839844 C 395.410156 906.554688 392.75 903.898438 389.472656 903.898438 C 386.191406 903.898438 383.53125 906.554688 383.53125 909.839844 " fill-opacity="1" fill-rule="nonzero"/><path fill="#151613" d="M 297.050781 908.902344 C 297.050781 912.179688 299.710938 914.839844 302.988281 914.839844 C 306.265625 914.839844 308.925781 912.179688 308.925781 908.902344 C 308.925781 905.625 306.265625 902.960938 302.988281 902.960938 C 299.710938 902.960938 297.050781 905.625 297.050781 908.902344 " fill-opacity="1" fill-rule="nonzero"/><path fill="#151613" d="M 329.730469 930.996094 C 332.125 931.308594 334.726562 931.695312 337.011719 930.6875 C 339.164062 929.742188 339.824219 927.972656 339.886719 925.960938 C 336.183594 925.644531 333.378906 924.191406 333.378906 922.4375 C 333.378906 922.179688 333.34375 921.847656 333.558594 921.679688 C 336.367188 919.566406 344.648438 919.804688 347.625 921.679688 C 347.855469 921.824219 347.804688 922.179688 347.804688 922.4375 C 347.804688 924.191406 345 925.644531 341.296875 925.960938 C 341.363281 927.972656 342.023438 929.742188 344.167969 930.6875 C 346.457031 931.695312 349.058594 931.308594 351.453125 930.996094 C 352.898438 930.8125 352.882812 933.082031 351.453125 933.261719 C 348.160156 933.6875 344.578125 933.992188 341.746094 931.90625 C 341.289062 931.566406 340.914062 931.199219 340.59375 930.800781 C 340.269531 931.199219 339.894531 931.566406 339.4375 931.90625 C 336.605469 933.992188 333.027344 933.6875 329.730469 933.261719 C 328.300781 933.082031 328.285156 930.8125 329.730469 930.996094 " fill-opacity="1" fill-rule="nonzero"/><path fill="#151613" d="M 396.179688 929.242188 C 402.066406 927.367188 408.0625 926.316406 414.230469 926.03125 C 415.652344 925.96875 415.652344 928.183594 414.230469 928.25 C 408.257812 928.511719 402.460938 929.5625 396.765625 931.371094 C 395.40625 931.804688 394.824219 929.667969 396.179688 929.242188 " fill-opacity="1" fill-rule="nonzero"/><path fill="#151613" d="M 399.289062 935.175781 C 403.375 935.746094 407.460938 936.320312 411.550781 936.894531 C 412.957031 937.089844 412.359375 939.222656 410.960938 939.027344 C 406.875 938.453125 402.789062 937.878906 398.699219 937.304688 C 397.296875 937.109375 397.894531 934.980469 399.289062 935.175781 " fill-opacity="1" fill-rule="nonzero"/><path fill="#151613" d="M 397.898438 939.875 C 401.449219 943.054688 404.996094 946.238281 408.546875 949.410156 C 409.609375 950.363281 408.039062 951.921875 406.980469 950.980469 L 396.335938 941.4375 C 395.273438 940.484375 396.84375 938.929688 397.898438 939.875 " fill-opacity="1" fill-rule="nonzero"/><path fill="#151613" d="M 283.933594 924.464844 C 278.71875 922.804688 273.40625 921.871094 267.9375 921.625 C 266.679688 921.566406 266.679688 923.527344 267.9375 923.585938 C 273.234375 923.824219 278.367188 924.746094 283.414062 926.355469 C 284.617188 926.742188 285.132812 924.847656 283.933594 924.464844 " fill-opacity="1" fill-rule="nonzero"/><path fill="#151613" d="M 281.179688 929.71875 C 277.558594 930.234375 273.9375 930.738281 270.316406 931.25 C 269.070312 931.421875 269.597656 933.3125 270.835938 933.140625 C 274.457031 932.628906 278.078125 932.121094 281.699219 931.609375 C 282.945312 931.4375 282.417969 929.546875 281.179688 929.71875 " fill-opacity="1" fill-rule="nonzero"/><path fill="#151613" d="M 282.410156 933.890625 C 279.265625 936.703125 276.121094 939.527344 272.976562 942.339844 C 272.035156 943.183594 273.425781 944.570312 274.363281 943.726562 L 283.796875 935.277344 C 284.738281 934.433594 283.347656 933.046875 282.410156 933.890625 " fill-opacity="1" fill-rule="nonzero"/><path fill="#fde6b7" d="M 664.050781 653.734375 C 664.007812 653.46875 664.003906 653.433594 664.050781 653.734375 " fill-opacity="1" fill-rule="nonzero"/><path fill="#fde6b7" d="M 664.148438 654.339844 C 664.273438 655.121094 664.496094 656.507812 664.847656 658.695312 C 664.585938 657.0625 664.308594 655.332031 664.148438 654.339844 " fill-opacity="1" fill-rule="nonzero"/><path fill="#fde6b7" d="M 664.050781 653.734375 C 664.074219 653.863281 664.105469 654.066406 664.148438 654.339844 C 664.109375 654.089844 664.074219 653.875 664.050781 653.734375 " fill-opacity="1" fill-rule="nonzero"/><path fill="#fde6b7" d="M 665.398438 662.105469 C 665.425781 662.265625 665.445312 662.390625 665.457031 662.46875 C 665.445312 662.394531 665.425781 662.265625 665.398438 662.105469 " fill-opacity="1" fill-rule="nonzero"/><path fill="#fde6b7" d="M 665.191406 660.820312 C 665.222656 660.996094 665.246094 661.152344 665.269531 661.296875 C 665.242188 661.144531 665.21875 660.996094 665.191406 660.820312 " fill-opacity="1" fill-rule="nonzero"/><path fill="#fde6b7" d="M 665.269531 661.296875 C 665.292969 661.441406 665.3125 661.578125 665.332031 661.699219 C 665.3125 661.585938 665.292969 661.449219 665.269531 661.296875 " fill-opacity="1" fill-rule="nonzero"/><path fill="#fde6b7" d="M 712.347656 661.519531 C 705.039062 641.828125 694.113281 622.292969 676.082031 610.578125 C 665.84375 603.929688 652.984375 600.589844 640.714844 601.722656 C 634.3125 593.972656 626.589844 587.230469 617.328125 581.769531 C 606.855469 575.601562 599.242188 570.007812 587.105469 568.582031 C 563.5 565.800781 539.566406 569.148438 515.742188 565.894531 C 511.617188 565.332031 507.378906 564.753906 503.066406 564.207031 C 502.339844 561.585938 501.589844 559.003906 500.804688 556.484375 C 500.902344 555.722656 500.984375 555 501.046875 554.355469 C 502.878906 535.320312 503.871094 506.78125 492.902344 490.574219 C 481.980469 474.425781 475.972656 486.085938 461.359375 500.207031 C 457.160156 504.261719 453.792969 507.171875 450.691406 509.199219 C 436.074219 507.863281 419.035156 508.640625 403.945312 510.648438 C 400.527344 508.605469 396.691406 505.390625 391.585938 500.46875 C 384.921875 494.050781 370.785156 477.5625 363.597656 482.304688 C 350.605469 490.871094 347.96875 524.230469 348.425781 558.265625 C 343.070312 578.019531 340.179688 602.285156 338.699219 625.839844 C 336.226562 630.066406 333.988281 634.519531 330.484375 639.183594 C 321.179688 651.550781 297.128906 667.945312 297.050781 685.074219 C 296.964844 704.378906 317.992188 695.847656 331.496094 691.679688 C 342.308594 688.335938 346 678.871094 367.328125 688.34375 C 378.578125 693.34375 357.746094 724.171875 374.011719 739.527344 C 387.953125 752.6875 406.546875 739.367188 419.410156 728.34375 C 434.191406 715.664062 450.347656 711.523438 469.488281 705.546875 C 503.136719 695.03125 535.175781 694.03125 570.519531 696.035156 C 588.398438 697.054688 603.332031 711.382812 590.863281 729.792969 C 582.027344 736.222656 577.421875 744.523438 580.230469 750.34375 C 583.648438 757.421875 596.757812 758.210938 609.886719 752.292969 C 624.574219 748.027344 637.933594 737.621094 650.714844 729.207031 C 671.832031 715.3125 668.863281 683.644531 665.117188 660.359375 C 665.140625 660.519531 665.171875 660.679688 665.191406 660.820312 C 665.167969 660.667969 665.140625 660.519531 665.113281 660.339844 C 665.113281 660.339844 665.113281 660.339844 665.113281 660.332031 C 662.855469 646.300781 659.003906 633.015625 653.136719 621.082031 C 658.488281 622.222656 663.683594 624.570312 668.253906 627.882812 C 680.914062 637.050781 688.941406 652.148438 694.269531 666.507812 C 699.578125 680.804688 703.179688 696.914062 700.503906 712.183594 C 698.121094 725.722656 689.132812 743.785156 673.011719 742.78125 C 660.960938 742.03125 661.007812 760.785156 673.011719 761.527344 C 695.417969 762.921875 711.890625 742.40625 717.339844 722.664062 C 722.855469 702.652344 719.457031 680.675781 712.347656 661.519531 " fill-opacity="1" fill-rule="nonzero"/><path fill="#fde6b7" d="M 664.863281 658.773438 C 664.9375 659.257812 665.019531 659.765625 665.113281 660.332031 C 665.035156 659.847656 664.949219 659.328125 664.863281 658.773438 " fill-opacity="1" fill-rule="nonzero"/><path fill="#151613" d="M 442.78125 562.785156 C 442.78125 565.605469 445.070312 567.902344 447.898438 567.902344 C 450.722656 567.902344 453.011719 565.605469 453.011719 562.785156 C 453.011719 559.953125 450.722656 557.667969 447.898438 557.667969 C 445.070312 557.667969 442.78125 559.953125 442.78125 562.785156 " fill-opacity="1" fill-rule="nonzero"/><path fill="#151613" d="M 368.265625 561.976562 C 368.265625 564.796875 370.558594 567.09375 373.382812 567.09375 C 376.207031 567.09375 378.496094 564.796875 378.496094 561.976562 C 378.496094 559.148438 376.207031 556.859375 373.382812 556.859375 C 370.558594 556.859375 368.265625 559.148438 368.265625 561.976562 " fill-opacity="1" fill-rule="nonzero"/><path fill="#151613" d="M 396.425781 581.015625 C 398.488281 581.277344 400.730469 581.621094 402.699219 580.746094 C 404.550781 579.929688 405.117188 578.40625 405.175781 576.675781 C 401.984375 576.402344 399.566406 575.144531 399.566406 573.636719 C 399.566406 573.414062 399.535156 573.125 399.722656 572.988281 C 402.140625 571.164062 409.28125 571.371094 411.84375 572.988281 C 412.039062 573.109375 412 573.414062 412 573.636719 C 412 575.144531 409.582031 576.402344 406.390625 576.675781 C 406.445312 578.40625 407.015625 579.929688 408.867188 580.746094 C 410.835938 581.621094 413.078125 581.277344 415.140625 581.015625 C 416.386719 580.851562 416.371094 582.808594 415.140625 582.96875 C 412.300781 583.328125 409.21875 583.597656 406.777344 581.792969 C 406.382812 581.503906 406.058594 581.1875 405.785156 580.839844 C 405.503906 581.1875 405.183594 581.503906 404.789062 581.792969 C 402.347656 583.597656 399.261719 583.328125 396.425781 582.96875 C 395.191406 582.808594 395.179688 580.851562 396.425781 581.015625 " fill-opacity="1" fill-rule="nonzero"/><path fill="#151613" d="M 453.675781 579.496094 C 458.75 577.886719 463.914062 576.976562 469.226562 576.730469 C 470.457031 576.683594 470.453125 578.585938 469.226562 578.636719 C 464.082031 578.878906 459.089844 579.78125 454.183594 581.339844 C 453.011719 581.714844 452.507812 579.871094 453.675781 579.496094 " fill-opacity="1" fill-rule="nonzero"/><path fill="#151613" d="M 456.355469 584.613281 C 459.878906 585.105469 463.398438 585.601562 466.917969 586.09375 C 468.128906 586.265625 467.617188 588.097656 466.410156 587.933594 C 462.890625 587.433594 459.371094 586.945312 455.847656 586.445312 C 454.640625 586.28125 455.152344 584.441406 456.355469 584.613281 " fill-opacity="1" fill-rule="nonzero"/><path fill="#151613" d="M 455.15625 588.660156 C 458.214844 591.402344 461.273438 594.136719 464.332031 596.878906 C 465.246094 597.703125 463.894531 599.046875 462.984375 598.230469 L 453.808594 590.011719 C 452.894531 589.1875 454.246094 587.847656 455.15625 588.660156 " fill-opacity="1" fill-rule="nonzero"/><path fill="#151613" d="M 356.96875 575.386719 C 352.472656 573.957031 347.898438 573.148438 343.1875 572.9375 C 342.097656 572.886719 342.101562 574.574219 343.1875 574.625 C 347.746094 574.828125 352.171875 575.628906 356.515625 577.015625 C 357.558594 577.347656 358 575.714844 356.96875 575.386719 " fill-opacity="1" fill-rule="nonzero"/><path fill="#151613" d="M 354.59375 579.914062 C 351.472656 580.347656 348.351562 580.789062 345.234375 581.226562 C 344.160156 581.378906 344.613281 583.003906 345.679688 582.859375 C 348.800781 582.421875 351.921875 581.980469 355.042969 581.546875 C 356.113281 581.394531 355.65625 579.765625 354.59375 579.914062 " fill-opacity="1" fill-rule="nonzero"/><path fill="#151613" d="M 355.65625 583.503906 C 352.945312 585.933594 350.234375 588.359375 347.523438 590.785156 C 346.714844 591.511719 347.914062 592.703125 348.71875 591.980469 L 356.847656 584.699219 C 357.660156 583.972656 356.460938 582.78125 355.65625 583.503906 " fill-opacity="1" fill-rule="nonzero"/><path fill="#d0ddbb" d="M 120.820312 0 L 102.238281 0 C 102.347656 5.039062 103.4375 10.109375 105.597656 15.082031 C 109.550781 24.167969 119.921875 34.449219 118.007812 45.027344 C 115.890625 56.75 101.527344 64.28125 91.671875 68.339844 C 89.109375 69.390625 86.492188 70.300781 83.847656 71.125 C 83.972656 68.605469 84.070312 65.996094 84.160156 63.277344 C 84.410156 55.773438 85.808594 48.195312 84.753906 40.753906 C 83.222656 29.902344 77.421875 19.960938 73.582031 9.304688 C 73.238281 8.078125 72.925781 6.824219 72.632812 5.558594 C 72.632812 5.558594 72.496094 3.546875 72.191406 0 L 1.289062 0 L 1.289062 128.972656 C 2.320312 128.933594 3.34375 128.894531 4.367188 128.84375 C 23.710938 128.027344 45.472656 125.574219 63.210938 115.035156 C 73.703125 108.808594 78.75 101.0625 81.308594 91.191406 C 106.082031 85.242188 137.398438 70.078125 136.980469 41.988281 C 136.777344 27.992188 126.769531 18.566406 122.105469 6.234375 C 121.304688 4.125 120.902344 2.039062 120.820312 0 " fill-opacity="1" fill-rule="nonzero"/><g clip-path="url(#92acfb7ab5)"><path fill="#8ea1d9" d="M 468.84375 1592.203125 C 468.710938 1581.671875 467.050781 1570.683594 461.332031 1561.621094 C 452.953125 1548.34375 438.671875 1539.980469 424.050781 1534.148438 C 425.769531 1522.167969 426.894531 1510.105469 425.523438 1498.019531 C 424.246094 1486.769531 419.640625 1473.851562 418.667969 1463.964844 C 418.382812 1461.050781 418.4375 1458.140625 418.671875 1455.226562 C 418.691406 1455.140625 418.703125 1455.0625 418.722656 1454.960938 C 418.996094 1453.589844 419.285156 1452.226562 419.652344 1450.882812 C 420.019531 1449.527344 420.488281 1448.21875 420.910156 1446.886719 C 421.035156 1446.488281 421.109375 1446.234375 421.148438 1446.070312 C 421.246094 1445.902344 421.394531 1445.644531 421.609375 1445.230469 C 422.6875 1443.152344 423.777344 1441.097656 425.0625 1439.144531 C 425.132812 1439.042969 426.746094 1436.863281 426.683594 1436.867188 C 427.386719 1436.03125 428.113281 1435.210938 428.863281 1434.421875 C 429.507812 1433.746094 430.167969 1433.089844 430.847656 1432.445312 C 431.523438 1431.804688 432.214844 1431.175781 432.925781 1430.578125 C 433.078125 1430.445312 433.214844 1430.339844 433.335938 1430.238281 C 433.765625 1429.972656 435.738281 1428.59375 435.566406 1428.707031 C 436.742188 1427.949219 437.945312 1427.242188 439.179688 1426.59375 C 439.800781 1426.269531 440.433594 1425.960938 441.070312 1425.65625 C 440.390625 1426.03125 444.292969 1424.566406 444.746094 1424.429688 C 452.328125 1422.15625 457.113281 1414.160156 454.984375 1406.410156 C 452.917969 1398.890625 444.5625 1393.890625 436.957031 1396.171875 C 415.652344 1402.574219 399.140625 1419.390625 392.191406 1440.410156 C 388.570312 1451.386719 388.695312 1462.726562 390.746094 1473.964844 C 392.769531 1485.085938 396.503906 1495.457031 396.824219 1506.394531 C 397.023438 1513.0625 396.578125 1519.421875 395.789062 1525.75 C 365.636719 1520.0625 332.679688 1524.523438 310.222656 1546.84375 C 298.253906 1558.734375 290.785156 1574.355469 286.335938 1590.527344 L 273.835938 1602.484375 C 269.367188 1601.742188 264.773438 1601.335938 260.066406 1601.335938 C 250.96875 1601.335938 242.242188 1602.792969 234.15625 1605.457031 L 213.277344 1598.386719 C 205.730469 1589.074219 186.820312 1596.300781 188.257812 1608.574219 C 188.851562 1613.605469 189.589844 1618.699219 190.511719 1623.777344 L 468 1623.777344 C 468.359375 1613.261719 468.972656 1602.714844 468.84375 1592.203125 " fill-opacity="1" fill-rule="nonzero"/></g><path fill="#d3e3f2" d="M 980.085938 0 L 768.789062 0 C 769.113281 9.402344 769.574219 15.253906 769.574219 15.253906 L 772.160156 36.292969 C 775.488281 47.515625 783.007812 53.253906 800.8125 59.003906 C 826.707031 67.371094 854.792969 67.3125 881.4375 66.464844 C 900.78125 65.835938 922.539062 63.984375 940.285156 55.996094 C 959.113281 47.515625 960.421875 35.332031 961.226562 16.753906 C 961.234375 16.527344 961.257812 16.304688 961.273438 16.078125 C 961.625 16.066406 961.980469 16.046875 962.332031 16.039062 C 967.019531 15.9375 973.714844 15.5 976.183594 20.429688 C 978.765625 25.582031 977.539062 33.421875 977.148438 38.921875 C 976.710938 45.117188 975.632812 51.800781 971.496094 56.691406 C 963.179688 66.523438 946.015625 68.683594 934.375 72.054688 C 918.175781 76.734375 901.96875 81.417969 885.769531 86.097656 C 874.199219 89.445312 879.121094 107.535156 890.753906 104.179688 C 910.808594 98.378906 930.875 92.59375 950.929688 86.785156 C 968.019531 81.835938 985.1875 75.609375 992.230469 57.726562 C 995.414062 49.636719 996.019531 40.644531 996.191406 32.027344 C 996.375 23.449219 995.457031 14.441406 989.980469 7.472656 C 987.246094 3.984375 983.863281 1.613281 980.085938 0 " fill-opacity="1" fill-rule="nonzero"/><path fill="#e5bbe1" d="M 764.273438 116.859375 C 744.816406 116.191406 723.921875 115.613281 706.167969 106.660156 C 702.007812 104.554688 698.144531 102.035156 694.609375 99.167969 C 720.402344 85.488281 727.132812 57.488281 722.617188 25.519531 C 717.640625 17.015625 712.660156 8.507812 707.683594 0 L 543.242188 0 C 545.4375 8.257812 547.742188 15.5 550.03125 20.769531 C 548.730469 23.351562 547.476562 25.949219 546.304688 28.597656 C 536.976562 49.636719 537.410156 78.746094 557.726562 93.410156 C 586.765625 114.359375 639.6875 113.832031 674.578125 106.09375 C 680.398438 112.367188 687.191406 117.746094 694.8125 121.859375 C 716.058594 133.328125 740.636719 134.800781 764.273438 135.609375 C 776.339844 136.023438 776.324219 117.277344 764.273438 116.859375 " fill-opacity="1" fill-rule="nonzero"/><path fill="#8ea1d9" d="M 190.820312 0 C 191.640625 4.5 192.597656 9.007812 193.738281 13.4375 L 206.921875 95.433594 C 207.863281 97.605469 209.117188 99.636719 210.773438 101.449219 C 214.421875 105.414062 218.707031 107.226562 223.285156 107.964844 C 222.152344 108.53125 221.011719 109.082031 219.859375 109.609375 C 219.53125 109.769531 219.347656 109.859375 219.261719 109.898438 C 219.101562 109.957031 218.929688 110.027344 218.722656 110.105469 C 217.601562 110.542969 216.484375 110.972656 215.351562 111.378906 C 212.859375 112.269531 210.339844 113.042969 207.789062 113.761719 C 200.167969 115.894531 195.453125 124.132812 197.554688 131.78125 C 199.652344 139.414062 207.933594 144.164062 215.582031 142.011719 C 232.578125 137.261719 248.527344 128.714844 262.109375 117.347656 C 264.257812 117.789062 266.515625 117.757812 268.730469 117.148438 C 271.96875 116.25 275.210938 115.367188 278.519531 114.769531 C 280.066406 114.488281 281.34375 114.417969 284.378906 114.398438 C 285.851562 114.398438 287.328125 114.457031 288.796875 114.578125 C 288.484375 114.589844 291.800781 115.054688 291.800781 115.054688 C 293.117188 115.355469 294.421875 115.703125 295.710938 116.113281 C 296.40625 116.320312 297.09375 116.5625 297.777344 116.820312 C 297.890625 116.878906 298.03125 116.9375 298.222656 117.027344 C 299.382812 117.585938 300.515625 118.214844 301.613281 118.890625 C 301.71875 118.953125 303.972656 120.652344 303.835938 120.464844 C 304.734375 121.25 305.601562 122.082031 306.417969 122.945312 C 306.570312 123.113281 307.546875 124.320312 307.988281 124.828125 C 308.359375 125.4375 309.160156 126.691406 309.261719 126.859375 C 309.34375 127.011719 310.613281 129.761719 310.480469 129.230469 C 310.675781 129.808594 310.851562 130.386719 311.015625 130.976562 C 310.949219 131.003906 310.894531 131.023438 310.878906 131.035156 C 309.332031 131.664062 307.777344 132.269531 306.210938 132.859375 C 303.105469 134.015625 299.96875 135.082031 296.804688 136.054688 C 290.007812 138.160156 283.089844 139.800781 276.089844 141.054688 C 268.296875 142.453125 263.894531 151.945312 265.859375 159.078125 C 268.113281 167.285156 276.066406 170.710938 283.882812 169.308594 C 301.015625 166.238281 317.578125 160.652344 333.140625 152.980469 C 333.644531 152.972656 334.140625 152.941406 334.625 152.882812 C 338.78125 152.324219 342.316406 150.0625 344.59375 146.855469 C 372.964844 130.464844 397.347656 107.015625 414.738281 79.332031 C 417.019531 75.699219 419.15625 71.972656 421.171875 68.175781 C 421.132812 68.683594 421.09375 69.203125 421.101562 69.710938 C 421.101562 69.742188 421.105469 69.75 421.109375 69.78125 C 421.070312 69.898438 421.03125 70.039062 420.988281 70.199219 C 420.652344 71.425781 420.421875 72.660156 420.046875 73.875 C 419.992188 74.054688 419.652344 74.960938 419.421875 75.578125 C 419.097656 76.207031 418.546875 77.339844 418.550781 77.332031 C 417.925781 78.449219 417.226562 79.503906 416.503906 80.550781 C 409.25 91.078125 421.285156 105.800781 433.054688 102.074219 C 450.945312 96.410156 460.832031 80.4375 464.464844 62.78125 C 468.542969 42.964844 467.628906 22.097656 468.246094 1.992188 C 468.265625 1.324219 468.292969 0.667969 468.316406 0 L 190.820312 0 " fill-opacity="1" fill-rule="nonzero"/><path fill="#151613" d="M 233.6875 50.464844 C 233.6875 52.429688 232.097656 54.023438 230.132812 54.023438 C 228.167969 54.023438 226.578125 52.429688 226.578125 50.464844 C 226.578125 48.5 228.167969 46.914062 230.132812 46.914062 C 232.097656 46.914062 233.6875 48.5 233.6875 50.464844 " fill-opacity="1" fill-rule="nonzero"/><path fill="#151613" d="M 305.964844 50.464844 C 305.964844 52.429688 304.375 54.023438 302.414062 54.023438 C 300.449219 54.023438 298.855469 52.429688 298.855469 50.464844 C 298.855469 48.5 300.449219 46.914062 302.414062 46.914062 C 304.375 46.914062 305.964844 48.5 305.964844 50.464844 " fill-opacity="1" fill-rule="nonzero"/><path fill="#151613" d="M 279.207031 75.335938 C 276.832031 75.640625 274.253906 76.03125 271.996094 75.03125 C 269.863281 74.089844 269.210938 72.339844 269.144531 70.351562 C 272.816406 70.035156 275.59375 68.601562 275.59375 66.859375 C 275.59375 66.597656 275.628906 66.273438 275.414062 66.109375 C 272.632812 64.015625 264.429688 64.253906 261.480469 66.109375 C 261.257812 66.253906 261.300781 66.597656 261.300781 66.859375 C 261.300781 68.601562 264.082031 70.035156 267.753906 70.351562 C 267.683594 72.339844 267.035156 74.089844 264.90625 75.03125 C 262.640625 76.03125 260.0625 75.640625 257.691406 75.335938 C 256.261719 75.152344 256.273438 77.402344 257.691406 77.582031 C 260.953125 78.007812 264.5 78.300781 267.308594 76.234375 C 267.761719 75.902344 268.128906 75.535156 268.449219 75.144531 C 268.765625 75.535156 269.140625 75.902344 269.589844 76.234375 C 272.398438 78.300781 275.945312 78.007812 279.207031 77.582031 C 280.625 77.402344 280.636719 75.152344 279.207031 75.335938 " fill-opacity="1" fill-rule="nonzero"/><path fill="#151613" d="M 216.445312 75.078125 C 210.472656 73.175781 204.394531 72.105469 198.136719 71.820312 C 196.691406 71.753906 196.695312 74.003906 198.136719 74.070312 C 204.195312 74.335938 210.074219 75.402344 215.847656 77.238281 C 217.230469 77.675781 217.820312 75.507812 216.445312 75.078125 " fill-opacity="1" fill-rule="nonzero"/><path fill="#151613" d="M 213.292969 81.09375 C 209.148438 81.671875 205 82.257812 200.855469 82.835938 C 199.429688 83.03125 200.035156 85.199219 201.453125 85.003906 C 205.597656 84.417969 209.742188 83.839844 213.890625 83.261719 C 215.3125 83.0625 214.707031 80.894531 213.292969 81.09375 " fill-opacity="1" fill-rule="nonzero"/><path fill="#151613" d="M 214.699219 85.867188 C 211.101562 89.097656 207.503906 92.316406 203.902344 95.542969 C 202.824219 96.507812 204.414062 98.09375 205.488281 97.132812 L 216.285156 87.453125 C 217.367188 86.492188 215.773438 84.902344 214.699219 85.867188 " fill-opacity="1" fill-rule="nonzero"/><path fill="#151613" d="M 316.910156 75.078125 C 322.886719 73.175781 328.964844 72.105469 335.222656 71.820312 C 336.667969 71.753906 336.664062 74.003906 335.222656 74.070312 C 329.164062 74.335938 323.285156 75.402344 317.507812 77.238281 C 316.128906 77.675781 315.539062 75.507812 316.910156 75.078125 " fill-opacity="1" fill-rule="nonzero"/><path fill="#151613" d="M 320.066406 81.09375 C 324.210938 81.671875 328.355469 82.257812 332.503906 82.835938 C 333.929688 83.03125 333.320312 85.199219 331.90625 85.003906 C 327.757812 84.417969 323.617188 83.839844 319.46875 83.261719 C 318.046875 83.0625 318.652344 80.894531 320.066406 81.09375 " fill-opacity="1" fill-rule="nonzero"/><path fill="#151613" d="M 318.65625 85.867188 C 322.257812 89.097656 325.855469 92.316406 329.457031 95.542969 C 330.535156 96.507812 328.941406 98.09375 327.867188 97.132812 L 317.070312 87.453125 C 315.992188 86.492188 317.582031 84.902344 318.65625 85.867188 " fill-opacity="1" fill-rule="nonzero"/><g fill="#000000" fill-opacity="1"><g transform="translate(388.312485, 722.999917)"><g><path d="M 6.171875 -3.203125 C 6.171875 -0.984375 5.394531 0.125 3.84375 0.125 C 2.863281 0.125 2.207031 -0.242188 1.875 -0.984375 L 1.84375 -0.984375 C 1.851562 -0.953125 1.859375 -0.617188 1.859375 0.015625 L 1.859375 2.484375 L 0.8125 2.484375 L 0.8125 -5.046875 C 0.8125 -5.703125 0.800781 -6.132812 0.78125 -6.34375 L 1.796875 -6.34375 C 1.796875 -6.320312 1.800781 -6.265625 1.8125 -6.171875 C 1.820312 -6.078125 1.832031 -5.929688 1.84375 -5.734375 C 1.851562 -5.535156 1.859375 -5.398438 1.859375 -5.328125 L 1.875 -5.328125 C 2.0625 -5.710938 2.304688 -5.992188 2.609375 -6.171875 C 2.921875 -6.359375 3.332031 -6.453125 3.84375 -6.453125 C 4.625 -6.453125 5.207031 -6.1875 5.59375 -5.65625 C 5.976562 -5.132812 6.171875 -4.316406 6.171875 -3.203125 Z M 5.0625 -3.171875 C 5.0625 -4.054688 4.941406 -4.6875 4.703125 -5.0625 C 4.460938 -5.445312 4.082031 -5.640625 3.5625 -5.640625 C 3.144531 -5.640625 2.816406 -5.550781 2.578125 -5.375 C 2.347656 -5.195312 2.171875 -4.921875 2.046875 -4.546875 C 1.921875 -4.171875 1.859375 -3.6875 1.859375 -3.09375 C 1.859375 -2.257812 1.988281 -1.644531 2.25 -1.25 C 2.519531 -0.851562 2.957031 -0.65625 3.5625 -0.65625 C 4.082031 -0.65625 4.460938 -0.847656 4.703125 -1.234375 C 4.941406 -1.617188 5.0625 -2.265625 5.0625 -3.171875 Z M 5.0625 -3.171875 "/></g></g><g transform="translate(394.986312, 722.999917)"><g><path d="M 1.859375 -5.25 C 2.085938 -5.664062 2.359375 -5.96875 2.671875 -6.15625 C 2.992188 -6.351562 3.398438 -6.453125 3.890625 -6.453125 C 4.578125 -6.453125 5.082031 -6.28125 5.40625 -5.9375 C 5.726562 -5.601562 5.890625 -5.03125 5.890625 -4.21875 L 5.890625 0 L 4.828125 0 L 4.828125 -4.015625 C 4.828125 -4.460938 4.785156 -4.796875 4.703125 -5.015625 C 4.628906 -5.234375 4.5 -5.390625 4.3125 -5.484375 C 4.125 -5.585938 3.863281 -5.640625 3.53125 -5.640625 C 3.03125 -5.640625 2.628906 -5.46875 2.328125 -5.125 C 2.035156 -4.78125 1.890625 -4.316406 1.890625 -3.734375 L 1.890625 0 L 0.828125 0 L 0.828125 -8.703125 L 1.890625 -8.703125 L 1.890625 -6.4375 C 1.890625 -6.195312 1.878906 -5.945312 1.859375 -5.6875 C 1.847656 -5.4375 1.84375 -5.289062 1.84375 -5.25 Z M 1.859375 -5.25 "/></g></g><g transform="translate(401.66014, 722.999917)"><g><path d="M 6.171875 -3.171875 C 6.171875 -2.066406 5.925781 -1.238281 5.4375 -0.6875 C 4.945312 -0.144531 4.238281 0.125 3.3125 0.125 C 2.382812 0.125 1.679688 -0.15625 1.203125 -0.71875 C 0.734375 -1.289062 0.5 -2.109375 0.5 -3.171875 C 0.5 -5.359375 1.445312 -6.453125 3.34375 -6.453125 C 4.3125 -6.453125 5.023438 -6.1875 5.484375 -5.65625 C 5.941406 -5.125 6.171875 -4.296875 6.171875 -3.171875 Z M 5.0625 -3.171875 C 5.0625 -4.046875 4.929688 -4.679688 4.671875 -5.078125 C 4.410156 -5.472656 3.972656 -5.671875 3.359375 -5.671875 C 2.742188 -5.671875 2.296875 -5.46875 2.015625 -5.0625 C 1.742188 -4.664062 1.609375 -4.035156 1.609375 -3.171875 C 1.609375 -2.335938 1.742188 -1.707031 2.015625 -1.28125 C 2.285156 -0.863281 2.710938 -0.65625 3.296875 -0.65625 C 3.929688 -0.65625 4.382812 -0.859375 4.65625 -1.265625 C 4.925781 -1.671875 5.0625 -2.304688 5.0625 -3.171875 Z M 5.0625 -3.171875 "/></g></g><g transform="translate(408.333967, 722.999917)"><g><path d="M 4.828125 0 L 4.828125 -4.015625 C 4.828125 -4.429688 4.785156 -4.753906 4.703125 -4.984375 C 4.628906 -5.222656 4.5 -5.390625 4.3125 -5.484375 C 4.132812 -5.585938 3.875 -5.640625 3.53125 -5.640625 C 3.019531 -5.640625 2.617188 -5.460938 2.328125 -5.109375 C 2.035156 -4.765625 1.890625 -4.285156 1.890625 -3.671875 L 1.890625 0 L 0.828125 0 L 0.828125 -4.984375 C 0.828125 -5.722656 0.816406 -6.175781 0.796875 -6.34375 L 1.796875 -6.34375 C 1.796875 -6.320312 1.796875 -6.265625 1.796875 -6.171875 C 1.804688 -6.085938 1.8125 -5.988281 1.8125 -5.875 C 1.820312 -5.769531 1.832031 -5.5625 1.84375 -5.25 L 1.859375 -5.25 C 2.097656 -5.6875 2.375 -5.992188 2.6875 -6.171875 C 3.007812 -6.359375 3.410156 -6.453125 3.890625 -6.453125 C 4.578125 -6.453125 5.082031 -6.28125 5.40625 -5.9375 C 5.726562 -5.59375 5.890625 -5.019531 5.890625 -4.21875 L 5.890625 0 Z M 4.828125 0 "/></g></g><g transform="translate(415.007795, 722.999917)"><g><path d="M 1.625 -2.953125 C 1.625 -2.222656 1.769531 -1.660156 2.0625 -1.265625 C 2.363281 -0.867188 2.804688 -0.671875 3.390625 -0.671875 C 3.847656 -0.671875 4.210938 -0.757812 4.484375 -0.9375 C 4.765625 -1.125 4.953125 -1.359375 5.046875 -1.640625 L 5.96875 -1.390625 C 5.59375 -0.378906 4.734375 0.125 3.390625 0.125 C 2.453125 0.125 1.738281 -0.15625 1.25 -0.71875 C 0.757812 -1.28125 0.515625 -2.113281 0.515625 -3.21875 C 0.515625 -4.257812 0.757812 -5.054688 1.25 -5.609375 C 1.738281 -6.171875 2.4375 -6.453125 3.34375 -6.453125 C 5.207031 -6.453125 6.140625 -5.332031 6.140625 -3.09375 L 6.140625 -2.953125 Z M 5.046875 -3.75 C 4.992188 -4.425781 4.828125 -4.914062 4.546875 -5.21875 C 4.265625 -5.519531 3.859375 -5.671875 3.328125 -5.671875 C 2.816406 -5.671875 2.410156 -5.5 2.109375 -5.15625 C 1.816406 -4.820312 1.65625 -4.351562 1.625 -3.75 Z M 5.046875 -3.75 "/></g></g></g></svg>